# xmcd
#
# Track frame offsets:
#  150
#  20333
#  40583
#
# Disc length: 809 seconds
#
# Revision: 0
# Processed by: cddbd v1.5.1PL0 Copyright (c) Steve Scherf et al.
# Submitted via: Collectorz.com_Music_Collector 6.9
#
DISCID=16032703
DTITLE=Total - No One Else
DYEAR=1995
DGENRE=
TTITLE0=Radio Edit
TTITLE1=Radio Edit 2
TTITLE2=Instrumental
EXTD=
EXTT0=
EXTT1=
EXTT2=
PLAYORDER=
